<svg width="431" height="244" viewBox="0 0 431 244" fill="none" xmlns="http://www.w3.org/2000/svg">
<g filter="url(#filter0_d)">
<rect width="203.476" height="291.798" rx="30" transform="matrix(0.870224 0.492656 -0.870224 0.492656 253.93 0)" fill="#F8F8F8"/>
</g>
<path d="M159.125 88.1174C157.152 86.928 155.726 85.6726 154.849 84.3511C154 83.0461 153.561 81.5428 153.534 79.8414C153.479 79.478 153.644 79.1806 154.027 78.9494C154.356 78.7511 154.781 78.6437 155.302 78.6272C155.85 78.6272 156.288 78.7263 156.617 78.9246C156.946 79.1228 157.111 79.3871 157.111 79.7175C156.891 82.4266 158.385 84.7475 161.591 86.6803C163.565 87.8696 165.661 88.5717 167.881 88.7864C170.129 89.0177 172.006 88.6791 173.513 87.7705C174.692 87.0602 175.336 86.2755 175.446 85.4166C175.61 84.5576 175.418 83.6655 174.87 82.7405C174.322 81.8154 173.5 80.7086 172.403 79.4201C171.17 78.0491 170.266 76.8101 169.69 75.7034C169.142 74.6131 169.019 73.5311 169.32 72.4574C169.649 71.3671 170.622 70.3347 172.239 69.36C173.692 68.4845 175.363 67.9394 177.254 67.7247C179.173 67.5264 181.146 67.6586 183.174 68.1211C185.257 68.5837 187.217 69.3683 189.053 70.4751C190.725 71.4827 191.999 72.5978 192.876 73.8202C193.808 75.0426 194.192 76.232 194.027 77.3883C193.972 77.9169 193.781 78.2803 193.452 78.4786C193.15 78.6603 192.725 78.7511 192.177 78.7511C191.657 78.7346 191.232 78.6272 190.903 78.429C190.629 78.2638 190.492 78.0656 190.492 77.8343C190.629 76.8597 190.355 75.8355 189.67 74.7618C188.984 73.688 187.97 72.7464 186.627 71.937C184.627 70.7311 182.544 70.0208 180.379 69.8061C178.241 69.5748 176.405 69.9217 174.87 70.8468C173.28 71.8049 172.664 72.9034 173.02 74.1423C173.376 75.3812 174.322 76.8927 175.857 78.6768C177.227 80.1965 178.227 81.5098 178.858 82.6166C179.488 83.7234 179.625 84.8466 179.269 85.9865C178.967 87.1263 177.912 88.2413 176.103 89.3316C174.706 90.174 173.02 90.6944 171.047 90.8926C169.128 91.0908 167.114 90.9504 165.004 90.4714C162.921 90.0089 160.961 89.2242 159.125 88.1174ZM196.968 87.9817L183.196 96.2825C182.154 96.9103 181.634 97.4554 181.634 97.9179C181.661 98.3639 181.99 98.7769 182.62 99.1569C182.785 99.256 183.018 99.3633 183.319 99.479C183.648 99.5781 183.881 99.6689 184.018 99.7515C184.265 99.9002 184.36 100.09 184.306 100.321C184.306 100.553 184.169 100.751 183.895 100.916C183.511 101.147 182.963 101.213 182.25 101.114C181.565 100.999 180.921 100.759 180.318 100.396C179.578 99.9498 178.989 99.512 178.55 99.0825C178.112 98.653 177.961 98.0666 178.098 97.3232C178.263 96.5964 179.098 95.7787 180.606 94.8702L194.501 86.495L191.5 84.6862C191.171 84.4879 190.993 84.2484 190.965 83.9676C190.965 83.7033 191.13 83.472 191.459 83.2738C191.788 83.0756 192.171 82.9764 192.61 82.9764C193.076 82.993 193.473 83.1003 193.802 83.2986L196.803 85.1074L201.366 82.357C201.723 82.1422 202.12 82.0349 202.558 82.0349C203.052 82.0349 203.477 82.1422 203.833 82.357C204.189 82.5717 204.354 82.8195 204.326 83.1003C204.354 83.3812 204.189 83.6289 203.833 83.8437L199.27 86.5941L203.381 89.072C203.682 89.2537 203.819 89.485 203.792 89.7658C203.792 90.0631 203.641 90.3026 203.34 90.4844C203.011 90.6826 202.627 90.7817 202.188 90.7817C201.777 90.7652 201.407 90.6578 201.079 90.4596L196.968 87.9817ZM219.49 98.0881C220.038 98.4185 220.422 98.7819 220.641 99.1783C220.861 99.5748 220.751 99.9052 220.312 100.169C219.929 100.401 219.504 100.525 219.038 100.541C218.6 100.541 218.23 100.45 217.928 100.269C217.791 100.186 217.586 99.9795 217.311 99.6491C217.065 99.3353 216.763 99.071 216.407 98.8562C215.393 98.245 213.982 97.8733 212.173 97.7412C210.419 97.609 208.596 97.7164 206.705 98.0633C204.841 98.4267 203.279 98.9884 202.019 99.7482L191.864 105.869C191.508 106.083 191.083 106.191 190.59 106.191C190.152 106.191 189.754 106.083 189.398 105.869C189.042 105.654 188.85 105.406 188.822 105.125C188.85 104.844 189.042 104.597 189.398 104.382L207.815 93.281C208.171 93.0663 208.569 92.9589 209.007 92.9589C209.501 92.9589 209.925 93.0663 210.282 93.281C210.638 93.4958 210.802 93.7436 210.775 94.0244C210.802 94.3052 210.638 94.553 210.282 94.7678L206.664 96.9483C208.857 96.3866 211.09 96.1801 213.365 96.3288C215.694 96.4775 217.736 97.0639 219.49 98.0881ZM207.6 115.353C207.244 115.568 206.819 115.675 206.325 115.675C205.887 115.675 205.49 115.568 205.133 115.353C204.777 115.138 204.585 114.89 204.558 114.61C204.585 114.329 204.777 114.081 205.133 113.866L224.044 102.468C224.4 102.253 224.798 102.146 225.236 102.146C225.729 102.146 226.154 102.253 226.51 102.468C226.867 102.683 227.031 102.931 227.004 103.211C227.031 103.492 226.867 103.74 226.51 103.955L207.6 115.353ZM229.265 100.808C228.717 100.478 228.415 100.147 228.36 99.8168C228.333 99.4699 228.566 99.1478 229.059 98.8504L229.47 98.6026C229.964 98.3053 230.484 98.1731 231.033 98.2062C231.635 98.2392 232.211 98.4209 232.759 98.7513C233.855 99.4121 233.897 100.048 232.882 100.659L232.471 100.907C231.978 101.204 231.444 101.345 230.868 101.328C230.347 101.312 229.813 101.138 229.265 100.808ZM244.182 112.971C246.731 114.507 247.841 116.085 247.512 117.704C247.238 119.322 245.868 120.875 243.401 122.362L231.315 129.647C230.959 129.862 230.534 129.969 230.04 129.969C229.575 129.952 229.177 129.845 228.848 129.647C228.492 129.432 228.3 129.184 228.273 128.904C228.3 128.623 228.492 128.375 228.848 128.16L240.811 120.95C242.593 119.876 243.579 118.736 243.771 117.53C244.018 116.324 243.209 115.16 241.346 114.036C240.167 113.326 238.769 112.814 237.152 112.5C235.563 112.203 233.973 112.137 232.384 112.302C230.822 112.451 229.506 112.847 228.437 113.491L216.474 120.702C216.118 120.917 215.693 121.024 215.2 121.024C214.761 121.024 214.364 120.917 214.008 120.702C213.651 120.487 213.459 120.239 213.432 119.958C213.459 119.678 213.651 119.43 214.008 119.215L232.425 108.114C232.781 107.9 233.178 107.792 233.617 107.792C234.11 107.792 234.535 107.9 234.891 108.114C235.248 108.329 235.412 108.577 235.385 108.858C235.412 109.138 235.248 109.386 234.891 109.601L232.63 110.964C234.549 110.7 236.577 110.749 238.715 111.113C240.907 111.476 242.73 112.095 244.182 112.971ZM275.308 132.326C275.664 132.541 275.828 132.789 275.801 133.069C275.828 133.35 275.65 133.606 275.266 133.838L257.466 144.567C255.328 145.855 253.053 146.681 250.642 147.045C248.23 147.441 245.845 147.408 243.489 146.945C241.159 146.499 238.994 145.673 236.993 144.468C236.034 143.889 235.143 143.204 234.321 142.411C233.526 141.635 232.937 140.899 232.553 140.206C232.197 139.528 232.17 139.033 232.471 138.719C232.471 138.488 232.594 138.298 232.841 138.149C233.115 137.984 233.458 137.926 233.869 137.976C234.061 137.992 234.239 138.05 234.403 138.149C234.568 138.248 234.787 138.496 235.061 138.892L235.554 139.636C236.596 141.056 237.856 142.213 239.336 143.105C241.776 144.575 244.379 145.302 247.147 145.285C249.915 145.302 252.478 144.6 254.835 143.179L257.384 141.643C255.219 142.122 252.971 142.171 250.642 141.791C248.339 141.395 246.38 140.709 244.763 139.735C242.872 138.595 241.625 137.282 241.022 135.795C240.474 134.308 240.597 132.797 241.392 131.261C242.187 129.724 243.626 128.328 245.708 127.073C247.764 125.834 250.066 124.975 252.615 124.496C255.164 124.017 257.658 123.951 260.097 124.298C262.591 124.645 264.77 125.38 266.633 126.503C268.36 127.544 269.497 128.758 270.045 130.146C270.648 131.533 270.69 132.797 270.169 133.937L272.8 132.351C273.156 132.136 273.567 132.02 274.033 132.004C274.526 132.004 274.951 132.111 275.308 132.326ZM247.271 138.471C248.778 139.38 250.477 139.974 252.368 140.255C254.314 140.536 256.274 140.478 258.247 140.082C260.275 139.685 262.125 138.983 263.797 137.976C265.469 136.968 266.62 135.861 267.25 134.655C267.908 133.466 267.99 132.293 267.497 131.137C267.058 129.98 266.085 128.948 264.578 128.039C263.098 127.147 261.371 126.569 259.398 126.305C257.48 126.041 255.52 126.098 253.519 126.478C251.546 126.875 249.751 127.56 248.134 128.535C246.49 129.526 245.338 130.616 244.681 131.806C244.05 133.012 243.941 134.201 244.352 135.374C244.818 136.547 245.791 137.579 247.271 138.471ZM263.77 146.682C263.907 146.335 264.099 146.087 264.346 145.938C264.702 145.723 265.154 145.666 265.702 145.765C266.031 145.765 266.333 145.847 266.607 146.013C266.936 146.211 267.1 146.475 267.1 146.805C266.579 149.069 267.662 151.01 270.348 152.628C271.663 153.421 273.102 153.925 274.664 154.14C276.281 154.355 277.679 154.107 278.857 153.397C280.009 152.703 280.42 151.91 280.091 151.018C279.762 150.126 278.994 149.069 277.789 147.846C276.089 146.128 275.048 144.608 274.664 143.287C274.308 141.949 275.021 140.743 276.802 139.669C277.926 138.992 279.241 138.579 280.749 138.43C282.283 138.265 283.832 138.356 285.394 138.703C286.984 139.066 288.463 139.661 289.834 140.487C291.012 141.197 291.958 142.048 292.67 143.039C293.438 144.03 293.753 145.079 293.616 146.186C293.671 146.45 293.52 146.69 293.164 146.905C292.835 147.103 292.41 147.194 291.889 147.177C291.533 147.161 291.204 147.061 290.903 146.88C290.629 146.715 290.492 146.5 290.492 146.236C290.574 145.393 290.355 144.584 289.834 143.807C289.313 143.031 288.532 142.329 287.491 141.701C286.202 140.925 284.791 140.437 283.256 140.239C281.749 140.057 280.392 140.33 279.186 141.057C278.145 141.751 277.802 142.552 278.159 143.46C278.542 144.385 279.419 145.542 280.79 146.929C281.858 148.003 282.64 148.953 283.133 149.779C283.626 150.605 283.763 151.431 283.544 152.257C283.352 153.099 282.598 153.917 281.283 154.71C279.502 155.784 277.364 156.213 274.87 155.998C272.403 155.767 270.115 155.015 268.004 153.743C264.661 151.728 263.249 149.374 263.77 146.682Z" fill="black"/>
<line y1="-0.5" x2="69.4631" y2="-0.5" transform="matrix(-0.856456 0.51622 -0.856456 -0.51622 245.38 85.8965)" stroke="black"/>
<line y1="-0.5" x2="69.4631" y2="-0.5" transform="matrix(-0.856456 0.51622 -0.856456 -0.51622 254.923 91.6483)" stroke="black"/>
<line y1="-0.5" x2="69.4631" y2="-0.5" transform="matrix(-0.856456 0.51622 -0.856456 -0.51622 263.598 96.8772)" stroke="black"/>
<path d="M154.365 113.747C154.447 113.797 154.485 113.856 154.478 113.927C154.485 113.997 154.443 114.059 154.354 114.112L147.777 118.077C147.688 118.131 147.582 118.158 147.458 118.158C147.342 118.153 147.239 118.125 147.15 118.071C147.054 118.013 147.003 117.949 146.996 117.879C146.996 117.804 147.04 117.74 147.129 117.687L152.782 114.28L146.708 115.029C146.55 115.042 146.43 115.019 146.348 114.961L146.328 114.949C146.245 114.899 146.211 114.829 146.225 114.738L147.489 111.065L141.816 114.484C141.727 114.538 141.621 114.565 141.497 114.565C141.388 114.565 141.288 114.538 141.199 114.484C141.11 114.43 141.066 114.371 141.066 114.304C141.072 114.234 141.12 114.172 141.21 114.119L147.787 110.154C147.869 110.105 147.969 110.078 148.085 110.074C148.208 110.074 148.315 110.1 148.404 110.154C148.452 110.183 148.489 110.222 148.517 110.272C148.551 110.317 148.561 110.361 148.548 110.402L147.201 114.459L153.954 113.66C154.132 113.644 154.269 113.673 154.365 113.747ZM158.395 118.555C158.484 118.609 158.525 118.671 158.518 118.741C158.525 118.811 158.484 118.873 158.395 118.927L155.497 120.674C154.825 121.078 154.12 121.276 153.38 121.268C152.646 121.256 151.948 121.049 151.283 120.649C150.625 120.252 150.286 119.833 150.265 119.391C150.259 118.949 150.591 118.526 151.262 118.121L154.161 116.374C154.25 116.321 154.349 116.294 154.459 116.294C154.582 116.294 154.688 116.321 154.777 116.374C154.866 116.428 154.907 116.49 154.901 116.56C154.907 116.63 154.866 116.692 154.777 116.746L151.879 118.493C151.386 118.79 151.139 119.096 151.139 119.41C151.146 119.72 151.386 120.017 151.858 120.302C152.338 120.591 152.835 120.738 153.349 120.742C153.876 120.746 154.387 120.599 154.88 120.302L157.778 118.555C157.867 118.501 157.967 118.474 158.076 118.474C158.2 118.474 158.306 118.501 158.395 118.555ZM155.634 122.181C155.668 122.094 155.716 122.032 155.778 121.995C155.867 121.941 155.98 121.927 156.117 121.952C156.199 121.952 156.274 121.972 156.343 122.014C156.425 122.063 156.466 122.129 156.466 122.212C156.336 122.778 156.607 123.263 157.278 123.668C157.607 123.866 157.967 123.992 158.357 124.045C158.762 124.099 159.111 124.037 159.406 123.86C159.693 123.686 159.796 123.488 159.714 123.265C159.632 123.042 159.44 122.778 159.138 122.472C158.714 122.043 158.453 121.663 158.357 121.332C158.268 120.998 158.446 120.696 158.892 120.428C159.173 120.258 159.502 120.155 159.878 120.118C160.262 120.077 160.649 120.099 161.04 120.186C161.437 120.277 161.807 120.426 162.15 120.632C162.444 120.81 162.681 121.022 162.859 121.27C163.051 121.518 163.129 121.78 163.095 122.057C163.109 122.123 163.071 122.183 162.982 122.237C162.9 122.286 162.794 122.309 162.664 122.305C162.575 122.301 162.492 122.276 162.417 122.23C162.348 122.189 162.314 122.135 162.314 122.069C162.335 121.859 162.28 121.656 162.15 121.462C162.02 121.268 161.824 121.093 161.564 120.936C161.242 120.742 160.889 120.62 160.505 120.57C160.128 120.525 159.789 120.593 159.488 120.775C159.227 120.948 159.142 121.148 159.231 121.376C159.327 121.607 159.546 121.896 159.889 122.243C160.156 122.511 160.351 122.749 160.474 122.955C160.598 123.162 160.632 123.368 160.577 123.575C160.529 123.785 160.341 123.99 160.012 124.188C159.567 124.456 159.032 124.564 158.409 124.51C157.792 124.452 157.22 124.264 156.692 123.946C155.856 123.443 155.504 122.854 155.634 122.181ZM160.821 125.939C160.732 125.993 160.626 126.02 160.503 126.02C160.393 126.02 160.294 125.993 160.205 125.939C160.116 125.886 160.068 125.824 160.061 125.754C160.068 125.683 160.116 125.621 160.205 125.568L164.932 122.718C165.021 122.665 165.121 122.638 165.23 122.638C165.354 122.638 165.46 122.665 165.549 122.718C165.638 122.772 165.679 122.834 165.672 122.904C165.679 122.974 165.638 123.036 165.549 123.09L160.821 125.939ZM166.238 122.303C166.101 122.221 166.025 122.138 166.011 122.055C166.005 121.969 166.063 121.888 166.186 121.814L166.289 121.752C166.412 121.678 166.542 121.645 166.679 121.653C166.83 121.661 166.974 121.706 167.111 121.789C167.385 121.954 167.395 122.113 167.142 122.266L167.039 122.328C166.916 122.402 166.782 122.437 166.638 122.433C166.508 122.429 166.375 122.386 166.238 122.303ZM169.761 125.22C170.083 125.414 170.344 125.617 170.542 125.827C170.755 126.038 170.882 126.23 170.923 126.403C170.971 126.581 170.923 126.713 170.779 126.8C170.703 126.845 170.608 126.87 170.491 126.874C170.381 126.882 170.289 126.864 170.214 126.818C170.145 126.777 170.101 126.734 170.08 126.688C170.066 126.647 170.059 126.593 170.059 126.527C170.059 126.42 170.039 126.329 169.998 126.255C169.943 126.164 169.844 126.058 169.7 125.939C169.57 125.819 169.409 125.701 169.217 125.586C168.84 125.358 168.398 125.208 167.891 125.133C167.391 125.063 166.887 125.073 166.38 125.164C165.873 125.255 165.421 125.42 165.023 125.66C164.612 125.908 164.328 126.182 164.17 126.484C164.013 126.785 163.989 127.085 164.098 127.382C164.222 127.679 164.479 127.946 164.869 128.181C165.116 128.33 165.332 128.435 165.517 128.497C165.709 128.563 165.914 128.617 166.133 128.658C166.209 128.67 166.353 128.683 166.565 128.695C166.668 128.699 166.75 128.708 166.812 128.72C166.88 128.728 166.938 128.747 166.986 128.776C167.069 128.825 167.106 128.881 167.1 128.943C167.1 129.001 167.058 129.055 166.976 129.104C166.86 129.174 166.651 129.201 166.349 129.185C166.055 129.164 165.715 129.096 165.332 128.98C164.948 128.865 164.582 128.701 164.232 128.491C163.732 128.189 163.403 127.851 163.245 127.475C163.095 127.095 163.119 126.713 163.317 126.329C163.523 125.949 163.886 125.602 164.407 125.288C164.907 124.987 165.472 124.778 166.103 124.663C166.74 124.543 167.38 124.528 168.024 124.619C168.669 124.71 169.248 124.91 169.761 125.22ZM171.325 132.258C171.229 132.307 171.119 132.332 170.996 132.332C170.872 132.332 170.766 132.305 170.677 132.252C170.581 132.194 170.53 132.13 170.523 132.06C170.53 131.989 170.581 131.925 170.677 131.868L177.234 127.915C177.33 127.858 177.436 127.831 177.553 127.835C177.676 127.835 177.786 127.864 177.882 127.922C177.971 127.975 178.015 128.039 178.015 128.114C178.015 128.188 177.971 128.252 177.882 128.306L171.325 132.258ZM180.626 131.768C181.263 132.153 181.54 132.547 181.458 132.952C181.39 133.356 181.047 133.745 180.431 134.116L177.409 135.937C177.32 135.991 177.214 136.018 177.09 136.018C176.974 136.014 176.875 135.987 176.792 135.937C176.703 135.884 176.655 135.822 176.648 135.752C176.655 135.681 176.703 135.619 176.792 135.566L179.783 133.763C180.228 133.495 180.475 133.21 180.523 132.908C180.585 132.607 180.383 132.316 179.917 132.035C179.622 131.857 179.273 131.729 178.868 131.651C178.471 131.576 178.074 131.56 177.676 131.601C177.286 131.638 176.957 131.738 176.69 131.899L173.699 133.701C173.61 133.755 173.504 133.782 173.38 133.782C173.271 133.782 173.171 133.755 173.082 133.701C172.993 133.648 172.945 133.586 172.938 133.515C172.945 133.445 172.993 133.383 173.082 133.33L177.686 130.554C177.776 130.501 177.875 130.474 177.984 130.474C178.108 130.474 178.214 130.501 178.303 130.554C178.392 130.608 178.433 130.67 178.426 130.74C178.433 130.81 178.392 130.872 178.303 130.926L177.738 131.267C178.217 131.201 178.724 131.213 179.259 131.304C179.807 131.395 180.263 131.55 180.626 131.768ZM179.25 136.415C179.284 136.329 179.332 136.267 179.394 136.229C179.483 136.176 179.596 136.161 179.733 136.186C179.815 136.186 179.891 136.207 179.959 136.248C180.041 136.298 180.082 136.364 180.082 136.446C179.952 137.012 180.223 137.497 180.894 137.902C181.223 138.1 181.583 138.226 181.973 138.28C182.378 138.334 182.727 138.272 183.022 138.094C183.309 137.921 183.412 137.722 183.33 137.499C183.248 137.276 183.056 137.012 182.755 136.706C182.33 136.277 182.069 135.897 181.973 135.567C181.884 135.232 182.062 134.931 182.508 134.662C182.789 134.493 183.118 134.39 183.494 134.352C183.878 134.311 184.265 134.334 184.656 134.421C185.053 134.511 185.423 134.66 185.766 134.867C186.06 135.044 186.297 135.257 186.475 135.505C186.667 135.752 186.746 136.015 186.711 136.291C186.725 136.357 186.687 136.417 186.598 136.471C186.516 136.521 186.41 136.543 186.28 136.539C186.191 136.535 186.108 136.51 186.033 136.465C185.965 136.424 185.93 136.37 185.93 136.304C185.951 136.093 185.896 135.891 185.766 135.697C185.636 135.503 185.44 135.327 185.18 135.17C184.858 134.976 184.505 134.854 184.121 134.805C183.745 134.759 183.405 134.827 183.104 135.009C182.844 135.183 182.758 135.383 182.847 135.61C182.943 135.841 183.162 136.13 183.505 136.477C183.772 136.746 183.967 136.983 184.091 137.19C184.214 137.396 184.248 137.603 184.193 137.809C184.145 138.02 183.957 138.224 183.628 138.422C183.183 138.691 182.648 138.798 182.025 138.744C181.408 138.687 180.836 138.499 180.308 138.181C179.473 137.677 179.12 137.088 179.25 136.415ZM189.216 137.814L185.774 139.889C185.513 140.046 185.383 140.182 185.383 140.298C185.39 140.409 185.472 140.512 185.63 140.607C185.671 140.632 185.729 140.659 185.804 140.688C185.887 140.713 185.945 140.735 185.979 140.756C186.041 140.793 186.065 140.841 186.051 140.899C186.051 140.956 186.017 141.006 185.948 141.047C185.852 141.105 185.715 141.122 185.537 141.097C185.366 141.068 185.205 141.008 185.054 140.917C184.869 140.806 184.722 140.696 184.612 140.589C184.503 140.482 184.465 140.335 184.499 140.149C184.54 139.967 184.749 139.763 185.126 139.536L188.6 137.442L187.85 136.99C187.767 136.94 187.723 136.88 187.716 136.81C187.716 136.744 187.757 136.686 187.839 136.637C187.922 136.587 188.017 136.562 188.127 136.562C188.244 136.567 188.343 136.593 188.425 136.643L189.175 137.095L190.316 136.408C190.405 136.354 190.505 136.327 190.614 136.327C190.738 136.327 190.844 136.354 190.933 136.408C191.022 136.461 191.063 136.523 191.056 136.593C191.063 136.664 191.022 136.725 190.933 136.779L189.792 137.467L190.82 138.086C190.895 138.132 190.929 138.189 190.923 138.26C190.923 138.334 190.885 138.394 190.809 138.439C190.727 138.489 190.631 138.514 190.522 138.514C190.419 138.51 190.326 138.483 190.244 138.433L189.216 137.814ZM194.847 140.34C194.984 140.423 195.08 140.514 195.135 140.613C195.19 140.712 195.162 140.795 195.053 140.861C194.957 140.918 194.851 140.949 194.734 140.954C194.624 140.954 194.532 140.931 194.457 140.885C194.422 140.865 194.371 140.813 194.302 140.731C194.241 140.652 194.165 140.586 194.076 140.532C193.823 140.38 193.47 140.287 193.018 140.254C192.579 140.221 192.124 140.247 191.651 140.334C191.185 140.425 190.794 140.565 190.479 140.755L187.941 142.285C187.852 142.339 187.745 142.366 187.622 142.366C187.512 142.366 187.413 142.339 187.324 142.285C187.235 142.232 187.187 142.17 187.18 142.1C187.187 142.029 187.235 141.967 187.324 141.914L191.928 139.139C192.017 139.085 192.117 139.058 192.226 139.058C192.35 139.058 192.456 139.085 192.545 139.139C192.634 139.192 192.675 139.254 192.668 139.324C192.675 139.395 192.634 139.457 192.545 139.51L191.641 140.055C192.189 139.915 192.747 139.863 193.316 139.9C193.898 139.938 194.409 140.084 194.847 140.34ZM200.117 143.703C200.206 143.756 200.247 143.818 200.24 143.888C200.247 143.959 200.206 144.021 200.117 144.074L197.219 145.821C196.547 146.226 195.842 146.424 195.102 146.416C194.369 146.403 193.67 146.197 193.005 145.796C192.347 145.4 192.008 144.981 191.988 144.539C191.981 144.097 192.313 143.674 192.985 143.269L195.883 141.522C195.972 141.468 196.071 141.441 196.181 141.441C196.304 141.441 196.41 141.468 196.499 141.522C196.588 141.576 196.63 141.638 196.623 141.708C196.63 141.778 196.588 141.84 196.499 141.894L193.601 143.641C193.108 143.938 192.861 144.244 192.861 144.557C192.868 144.867 193.108 145.164 193.581 145.449C194.06 145.738 194.557 145.885 195.071 145.889C195.598 145.893 196.109 145.747 196.602 145.449L199.5 143.703C199.59 143.649 199.689 143.622 199.798 143.622C199.922 143.622 200.028 143.649 200.117 143.703ZM208.075 148.413C208.692 148.784 208.952 149.172 208.856 149.577C208.774 149.982 208.421 150.372 207.798 150.748L204.889 152.501C204.8 152.555 204.694 152.582 204.571 152.582C204.461 152.582 204.362 152.555 204.273 152.501C204.184 152.447 204.136 152.385 204.129 152.315C204.136 152.245 204.184 152.183 204.273 152.129L207.15 150.395C207.603 150.122 207.859 149.835 207.921 149.534C207.997 149.232 207.808 148.945 207.356 148.673C207.068 148.499 206.726 148.375 206.328 148.301C205.938 148.231 205.544 148.22 205.146 148.27C204.756 148.315 204.423 148.421 204.149 148.586L201.272 150.32C201.183 150.374 201.076 150.401 200.953 150.401C200.843 150.401 200.744 150.374 200.655 150.32C200.566 150.267 200.518 150.205 200.511 150.135C200.518 150.064 200.566 150.002 200.655 149.949L203.564 148.196C204.009 147.927 204.266 147.649 204.334 147.359C204.41 147.066 204.228 146.787 203.79 146.523C203.509 146.354 203.173 146.234 202.782 146.164C202.399 146.098 202.012 146.087 201.621 146.133C201.244 146.178 200.922 146.282 200.655 146.443L197.746 148.196C197.657 148.249 197.551 148.276 197.428 148.276C197.318 148.276 197.219 148.249 197.13 148.196C197.041 148.142 196.993 148.08 196.986 148.01C196.993 147.94 197.041 147.878 197.13 147.824L201.734 145.049C201.823 144.995 201.923 144.968 202.032 144.968C202.155 144.968 202.262 144.995 202.351 145.049C202.44 145.103 202.481 145.164 202.474 145.235C202.481 145.305 202.44 145.367 202.351 145.421L201.755 145.78C202.221 145.722 202.704 145.732 203.204 145.811C203.704 145.889 204.129 146.034 204.478 146.244C204.876 146.484 205.122 146.748 205.218 147.037C205.314 147.326 205.239 147.62 204.992 147.917C205.437 147.822 205.965 147.822 206.575 147.917C207.185 148.012 207.685 148.177 208.075 148.413ZM213.565 154.571C213.482 154.62 213.38 154.645 213.256 154.645C213.14 154.641 213.04 154.614 212.958 154.564L209.073 152.223C208.662 152.471 208.374 152.743 208.21 153.041C208.059 153.338 208.042 153.637 208.159 153.939C208.289 154.24 208.566 154.519 208.991 154.775C209.32 154.973 209.683 155.11 210.081 155.184C210.478 155.258 210.862 155.279 211.232 155.246C211.369 155.254 211.471 155.279 211.54 155.32C211.608 155.362 211.643 155.415 211.643 155.481C211.643 155.547 211.608 155.601 211.54 155.642C211.465 155.688 211.358 155.71 211.221 155.71C210.735 155.739 210.238 155.704 209.731 155.605C209.231 155.51 208.796 155.351 208.426 155.128C207.898 154.81 207.545 154.461 207.367 154.081C207.189 153.701 207.189 153.321 207.367 152.941C207.552 152.557 207.912 152.204 208.446 151.882C209.008 151.544 209.608 151.314 210.245 151.195C210.896 151.075 211.516 151.06 212.105 151.151C212.701 151.238 213.208 151.407 213.626 151.659C214.037 151.907 214.325 152.196 214.49 152.526C214.661 152.861 214.675 153.208 214.531 153.567C214.387 153.926 214.065 154.261 213.565 154.571ZM213.03 152.018C212.633 151.779 212.126 151.639 211.509 151.597C210.899 151.56 210.29 151.667 209.68 151.919L213.184 154.032L213.267 153.982C213.541 153.776 213.705 153.553 213.76 153.313C213.822 153.07 213.78 152.834 213.637 152.607C213.506 152.38 213.304 152.184 213.03 152.018ZM219.758 155.355C220.396 155.739 220.673 156.134 220.591 156.538C220.522 156.943 220.18 157.331 219.563 157.703L216.542 159.524C216.453 159.578 216.346 159.605 216.223 159.605C216.107 159.601 216.007 159.574 215.925 159.524C215.836 159.471 215.788 159.409 215.781 159.338C215.788 159.268 215.836 159.206 215.925 159.153L218.916 157.35C219.361 157.082 219.608 156.797 219.656 156.495C219.717 156.194 219.515 155.903 219.049 155.622C218.755 155.444 218.405 155.316 218.001 155.238C217.604 155.163 217.206 155.147 216.809 155.188C216.418 155.225 216.089 155.324 215.822 155.485L212.831 157.288C212.742 157.342 212.636 157.369 212.513 157.369C212.403 157.369 212.304 157.342 212.215 157.288C212.126 157.234 212.078 157.172 212.071 157.102C212.078 157.032 212.126 156.97 212.215 156.916L216.819 154.141C216.908 154.087 217.008 154.061 217.117 154.061C217.24 154.061 217.347 154.087 217.436 154.141C217.525 154.195 217.566 154.257 217.559 154.327C217.566 154.397 217.525 154.459 217.436 154.513L216.871 154.854C217.35 154.787 217.857 154.8 218.392 154.891C218.94 154.982 219.395 155.136 219.758 155.355ZM223.532 158.497L220.089 160.572C219.828 160.729 219.698 160.865 219.698 160.981C219.705 161.092 219.787 161.196 219.945 161.291C219.986 161.315 220.044 161.342 220.119 161.371C220.202 161.396 220.26 161.419 220.294 161.439C220.356 161.476 220.38 161.524 220.366 161.582C220.366 161.64 220.332 161.689 220.263 161.73C220.167 161.788 220.03 161.805 219.852 161.78C219.681 161.751 219.52 161.691 219.369 161.6C219.184 161.489 219.037 161.379 218.927 161.272C218.818 161.165 218.78 161.018 218.814 160.832C218.855 160.65 219.064 160.446 219.441 160.219L222.915 158.125L222.165 157.673C222.082 157.623 222.038 157.563 222.031 157.493C222.031 157.427 222.072 157.369 222.154 157.32C222.237 157.27 222.333 157.245 222.442 157.245C222.559 157.25 222.658 157.276 222.74 157.326L223.49 157.778L224.631 157.091C224.72 157.037 224.82 157.01 224.929 157.01C225.053 157.01 225.159 157.037 225.248 157.091C225.337 157.144 225.378 157.206 225.371 157.276C225.378 157.347 225.337 157.409 225.248 157.462L224.107 158.15L225.135 158.769C225.21 158.815 225.245 158.873 225.238 158.943C225.238 159.017 225.2 159.077 225.125 159.122C225.042 159.172 224.946 159.197 224.837 159.197C224.734 159.193 224.642 159.166 224.559 159.116L223.532 158.497ZM222.066 162.222C222.1 162.135 222.148 162.074 222.21 162.036C222.299 161.983 222.412 161.968 222.549 161.993C222.631 161.993 222.707 162.014 222.775 162.055C222.857 162.105 222.898 162.171 222.898 162.253C222.768 162.819 223.039 163.304 223.71 163.709C224.039 163.907 224.399 164.033 224.79 164.087C225.194 164.14 225.543 164.079 225.838 163.901C226.126 163.728 226.228 163.529 226.146 163.306C226.064 163.083 225.872 162.819 225.571 162.513C225.146 162.084 224.885 161.704 224.79 161.374C224.7 161.039 224.879 160.738 225.324 160.469C225.605 160.3 225.934 160.197 226.311 160.159C226.694 160.118 227.081 160.141 227.472 160.228C227.869 160.318 228.239 160.467 228.582 160.674C228.877 160.851 229.113 161.064 229.291 161.312C229.483 161.559 229.562 161.822 229.527 162.098C229.541 162.164 229.503 162.224 229.414 162.278C229.332 162.328 229.226 162.35 229.096 162.346C229.007 162.342 228.925 162.317 228.849 162.272C228.781 162.23 228.746 162.177 228.746 162.111C228.767 161.9 228.712 161.698 228.582 161.504C228.452 161.31 228.256 161.134 227.996 160.977C227.674 160.783 227.321 160.661 226.938 160.612C226.561 160.566 226.222 160.634 225.92 160.816C225.66 160.989 225.574 161.19 225.663 161.417C225.759 161.648 225.978 161.937 226.321 162.284C226.588 162.553 226.783 162.79 226.907 162.997C227.03 163.203 227.064 163.41 227.009 163.616C226.962 163.827 226.773 164.031 226.444 164.229C225.999 164.498 225.464 164.605 224.841 164.551C224.224 164.494 223.652 164.306 223.125 163.988C222.289 163.484 221.936 162.895 222.066 162.222Z" fill="black"/>
<defs>
<filter id="filter0_d" x="11.293" y="8.65773" width="408.414" height="234.685" filterUnits="userSpaceOnUse" color-interpolation-filters="sRGB">
<feFlood flood-opacity="0" result="BackgroundImageFix"/>
<feColorMatrix in="SourceAlpha" type="matrix" values="0 0 0 0 0 0 0 0 0 0 0 0 0 0 0 0 0 0 127 0"/>
<feOffset dy="4"/>
<feGaussianBlur stdDeviation="2"/>
<feColorMatrix type="matrix" values="0 0 0 0 0 0 0 0 0 0 0 0 0 0 0 0 0 0 0.5 0"/>
<feBlend mode="normal" in2="BackgroundImageFix" result="effect1_dropShadow"/>
<feBlend mode="normal" in="SourceGraphic" in2="effect1_dropShadow" result="shape"/>
</filter>
</defs>
</svg>
