<svg width="163" height="91" viewBox="0 0 163 91" fill="none" xmlns="http://www.w3.org/2000/svg">
<path d="M13.584 52.48C11.28 52.48 9.232 52.096 7.44 51.328C5.68 50.56 3.968 49.36 2.304 47.728C1.92 47.408 1.728 47.024 1.728 46.576C1.728 46.192 1.872 45.84 2.16 45.52C2.48 45.2 2.832 45.04 3.216 45.04C3.6 45.04 3.952 45.2 4.272 45.52C6.768 48.272 9.888 49.648 13.632 49.648C15.936 49.648 17.84 49.104 19.344 48.016C20.88 46.928 21.648 45.504 21.648 43.744C21.648 42.368 21.264 41.232 20.496 40.336C19.76 39.408 18.784 38.656 17.568 38.08C16.352 37.504 14.8 36.912 12.912 36.304C10.864 35.696 9.136 35.024 7.728 34.288C6.352 33.552 5.232 32.576 4.368 31.36C3.504 30.112 3.072 28.544 3.072 26.656C3.072 24.96 3.52 23.456 4.416 22.144C5.344 20.832 6.624 19.808 8.256 19.072C9.92 18.304 11.824 17.92 13.968 17.92C15.92 17.92 17.744 18.256 19.44 18.928C21.168 19.568 22.544 20.496 23.568 21.712C24.048 22.256 24.288 22.72 24.288 23.104C24.288 23.456 24.128 23.792 23.808 24.112C23.488 24.4 23.136 24.544 22.752 24.544C22.432 24.544 22.16 24.432 21.936 24.208C21.072 23.184 19.92 22.352 18.48 21.712C17.04 21.072 15.536 20.752 13.968 20.752C11.632 20.752 9.728 21.28 8.256 22.336C6.784 23.36 6.048 24.768 6.048 26.56C6.048 28.416 6.752 29.84 8.16 30.832C9.568 31.824 11.584 32.736 14.208 33.568C16.48 34.24 18.336 34.928 19.776 35.632C21.216 36.336 22.384 37.344 23.28 38.656C24.208 39.936 24.672 41.632 24.672 43.744C24.672 45.376 24.192 46.864 23.232 48.208C22.304 49.52 20.992 50.56 19.296 51.328C17.632 52.096 15.728 52.48 13.584 52.48ZM35.5451 30.256V46.336C35.5451 47.552 35.7691 48.384 36.2171 48.832C36.6651 49.248 37.2571 49.456 37.9931 49.456C38.1851 49.456 38.4251 49.424 38.7131 49.36C39.0011 49.264 39.2251 49.216 39.3851 49.216C39.6731 49.216 39.9131 49.344 40.1051 49.6C40.3291 49.824 40.4411 50.096 40.4411 50.416C40.4411 50.864 40.1851 51.248 39.6731 51.568C39.1611 51.856 38.5531 52 37.8491 52C36.9851 52 36.2171 51.92 35.5451 51.76C34.8731 51.6 34.2171 51.12 33.5771 50.32C32.9691 49.52 32.6651 48.24 32.6651 46.48V30.256H29.1611C28.7771 30.256 28.4411 30.128 28.1531 29.872C27.8971 29.616 27.7691 29.296 27.7691 28.912C27.7691 28.528 27.8971 28.208 28.1531 27.952C28.4411 27.696 28.7771 27.568 29.1611 27.568H32.6651V22.24C32.6651 21.824 32.7931 21.488 33.0491 21.232C33.3371 20.944 33.6891 20.8 34.1051 20.8C34.5211 20.8 34.8571 20.944 35.1131 21.232C35.4011 21.488 35.5451 21.824 35.5451 22.24V27.568H40.3451C40.6971 27.568 41.0011 27.712 41.2571 28C41.5451 28.288 41.6891 28.608 41.6891 28.96C41.6891 29.344 41.5611 29.664 41.3051 29.92C41.0491 30.144 40.7291 30.256 40.3451 30.256H35.5451ZM58.4828 26.896C59.1228 26.896 59.6988 27.024 60.2108 27.28C60.7228 27.536 60.9788 27.92 60.9788 28.432C60.9788 28.88 60.8508 29.248 60.5948 29.536C60.3388 29.792 60.0348 29.92 59.6828 29.92C59.5228 29.92 59.2028 29.84 58.7228 29.68C58.2748 29.52 57.8428 29.44 57.4268 29.44C56.2428 29.44 55.0588 29.904 53.8748 30.832C52.7228 31.728 51.7628 32.896 50.9948 34.336C50.2588 35.776 49.8908 37.232 49.8908 38.704V50.56C49.8908 50.976 49.7468 51.328 49.4588 51.616C49.2028 51.872 48.8668 52 48.4508 52C48.0348 52 47.6828 51.872 47.3948 51.616C47.1388 51.328 47.0108 50.976 47.0108 50.56V29.056C47.0108 28.64 47.1388 28.304 47.3948 28.048C47.6828 27.76 48.0348 27.616 48.4508 27.616C48.8668 27.616 49.2028 27.76 49.4588 28.048C49.7468 28.304 49.8908 28.64 49.8908 29.056V33.28C50.6268 31.456 51.7308 29.952 53.2028 28.768C54.7068 27.552 56.4668 26.928 58.4828 26.896ZM68.2635 50.56C68.2635 50.976 68.1195 51.328 67.8315 51.616C67.5755 51.872 67.2395 52 66.8235 52C66.4075 52 66.0555 51.872 65.7675 51.616C65.5115 51.328 65.3835 50.976 65.3835 50.56V28.48C65.3835 28.064 65.5115 27.728 65.7675 27.472C66.0555 27.184 66.4075 27.04 66.8235 27.04C67.2395 27.04 67.5755 27.184 67.8315 27.472C68.1195 27.728 68.2635 28.064 68.2635 28.48V50.56ZM66.8235 23.824C66.1835 23.824 65.6875 23.68 65.3355 23.392C64.9835 23.072 64.8075 22.624 64.8075 22.048V21.568C64.8075 20.992 64.9835 20.56 65.3355 20.272C65.7195 19.952 66.2315 19.792 66.8715 19.792C68.1515 19.792 68.7915 20.384 68.7915 21.568V22.048C68.7915 22.624 68.6155 23.072 68.2635 23.392C67.9435 23.68 67.4635 23.824 66.8235 23.824ZM87.3131 26.896C90.2891 26.896 92.4651 27.776 93.8411 29.536C95.2491 31.264 95.9531 33.568 95.9531 36.448V50.56C95.9531 50.976 95.8091 51.328 95.5211 51.616C95.2331 51.872 94.8971 52 94.5131 52C94.0971 52 93.7451 51.872 93.4571 51.616C93.2011 51.328 93.0731 50.976 93.0731 50.56V36.592C93.0731 34.512 92.5451 32.832 91.4891 31.552C90.4651 30.24 88.8651 29.584 86.6891 29.584C85.3131 29.584 84.0011 29.904 82.7531 30.544C81.5371 31.184 80.5451 32.048 79.7771 33.136C79.0091 34.192 78.6251 35.344 78.6251 36.592V50.56C78.6251 50.976 78.4811 51.328 78.1931 51.616C77.9371 51.872 77.6011 52 77.1851 52C76.7691 52 76.4171 51.872 76.1291 51.616C75.8731 51.328 75.7451 50.976 75.7451 50.56V29.056C75.7451 28.64 75.8731 28.304 76.1291 28.048C76.4171 27.76 76.7691 27.616 77.1851 27.616C77.6011 27.616 77.9371 27.76 78.1931 28.048C78.4811 28.304 78.6251 28.64 78.6251 29.056V31.696C79.4891 30.32 80.7211 29.184 82.3211 28.288C83.9531 27.36 85.6171 26.896 87.3131 26.896ZM124.231 27.472C124.647 27.472 124.983 27.616 125.239 27.904C125.527 28.16 125.671 28.512 125.671 28.96V49.744C125.671 52.24 125.143 54.368 124.087 56.128C123.063 57.92 121.639 59.28 119.815 60.208C118.023 61.136 115.959 61.6 113.623 61.6C112.503 61.6 111.319 61.456 110.071 61.168C108.855 60.88 107.799 60.512 106.903 60.064C106.039 59.616 105.543 59.152 105.415 58.672C105.191 58.448 105.079 58.192 105.079 57.904C105.079 57.584 105.223 57.328 105.511 57.136C105.639 57.04 105.799 56.992 105.991 56.992C106.183 56.992 106.551 57.104 107.095 57.328L108.103 57.76C110.087 58.528 111.943 58.912 113.671 58.912C116.519 58.912 118.743 58.096 120.343 56.464C121.975 54.864 122.791 52.688 122.791 49.936V46.96C121.991 48.688 120.727 50.048 118.999 51.04C117.271 52 115.463 52.48 113.575 52.48C111.367 52.48 109.367 51.936 107.575 50.848C105.815 49.728 104.423 48.192 103.399 46.24C102.375 44.288 101.863 42.096 101.863 39.664C101.863 37.264 102.375 35.088 103.399 33.136C104.423 31.184 105.815 29.664 107.575 28.576C109.367 27.456 111.351 26.896 113.527 26.896C115.543 26.896 117.383 27.408 119.047 28.432C120.743 29.424 121.991 30.624 122.791 32.032V28.96C122.791 28.544 122.919 28.192 123.175 27.904C123.463 27.616 123.815 27.472 124.231 27.472ZM113.815 49.792C115.575 49.792 117.143 49.376 118.519 48.544C119.927 47.68 121.015 46.48 121.783 44.944C122.583 43.376 122.983 41.616 122.983 39.664C122.983 37.712 122.583 35.968 121.783 34.432C121.015 32.896 119.927 31.712 118.519 30.88C117.143 30.016 115.575 29.584 113.815 29.584C112.087 29.584 110.519 30.032 109.111 30.928C107.735 31.792 106.647 32.992 105.847 34.528C105.079 36.064 104.695 37.776 104.695 39.664C104.695 41.584 105.079 43.312 105.847 44.848C106.647 46.384 107.735 47.6 109.111 48.496C110.519 49.36 112.087 49.792 113.815 49.792ZM131.4 48.112C131.144 47.696 131.016 47.344 131.016 47.056C131.016 46.64 131.224 46.32 131.64 46.096C131.832 45.904 132.088 45.808 132.408 45.808C132.792 45.808 133.144 45.968 133.464 46.288C135.352 48.784 137.864 50.032 141 50.032C142.536 50.032 143.864 49.68 144.984 48.976C146.136 48.24 146.712 47.184 146.712 45.808C146.712 44.464 146.184 43.456 145.128 42.784C144.072 42.112 142.6 41.536 140.712 41.056C138.056 40.384 135.976 39.52 134.472 38.464C132.968 37.376 132.216 35.792 132.216 33.712C132.216 32.4 132.584 31.232 133.32 30.208C134.056 29.152 135.048 28.336 136.296 27.76C137.576 27.184 139.016 26.896 140.616 26.896C141.992 26.896 143.368 27.168 144.744 27.712C146.152 28.224 147.352 29.056 148.344 30.208C148.632 30.432 148.776 30.752 148.776 31.168C148.776 31.552 148.616 31.888 148.296 32.176C148.072 32.368 147.784 32.464 147.432 32.464C147.112 32.464 146.824 32.336 146.568 32.08C145.8 31.216 144.888 30.56 143.832 30.112C142.776 29.664 141.64 29.44 140.424 29.44C138.92 29.44 137.624 29.792 136.536 30.496C135.48 31.2 134.952 32.256 134.952 33.664C135.016 34.944 135.592 35.92 136.68 36.592C137.8 37.264 139.432 37.872 141.576 38.416C143.24 38.832 144.616 39.296 145.704 39.808C146.792 40.32 147.672 41.04 148.344 41.968C149.048 42.896 149.4 44.128 149.4 45.664C149.4 47.744 148.568 49.408 146.904 50.656C145.24 51.872 143.176 52.48 140.712 52.48C136.808 52.48 133.704 51.024 131.4 48.112Z" fill="black"/>
<line x1="61.8765" x2="61.8765" y2="69" stroke="black"/>
<line x1="72.9444" x2="72.9444" y2="69" stroke="black"/>
<line x1="83.0062" x2="83.0062" y2="69" stroke="black"/>
<path d="M35.448 79.6C35.544 79.6 35.624 79.636 35.688 79.708C35.76 79.772 35.796 79.856 35.796 79.96V87.64C35.796 87.744 35.76 87.832 35.688 87.904C35.616 87.968 35.528 88 35.424 88C35.312 88 35.22 87.968 35.148 87.904C35.076 87.832 35.04 87.744 35.04 87.64V81.04L32.22 85.312C32.14 85.416 32.048 85.464 31.944 85.456H31.92C31.824 85.456 31.736 85.408 31.656 85.312L28.836 81.016V87.64C28.836 87.744 28.8 87.832 28.728 87.904C28.664 87.968 28.58 88 28.476 88C28.372 88 28.288 87.968 28.224 87.904C28.16 87.832 28.128 87.744 28.128 87.64V79.96C28.128 79.864 28.16 79.78 28.224 79.708C28.296 79.636 28.384 79.6 28.488 79.6C28.544 79.6 28.604 79.616 28.668 79.648C28.732 79.672 28.78 79.708 28.812 79.756L31.956 84.472L35.124 79.756C35.212 79.636 35.32 79.584 35.448 79.6ZM42.4578 81.904C42.5618 81.904 42.6458 81.94 42.7098 82.012C42.7818 82.076 42.8178 82.16 42.8178 82.264V85.648C42.8178 86.432 42.5978 87.036 42.1578 87.46C41.7178 87.876 41.1098 88.084 40.3338 88.084C39.5658 88.084 38.9618 87.876 38.5218 87.46C38.0898 87.036 37.8738 86.432 37.8738 85.648V82.264C37.8738 82.16 37.9058 82.076 37.9698 82.012C38.0418 81.94 38.1298 81.904 38.2338 81.904C38.3378 81.904 38.4218 81.94 38.4858 82.012C38.5578 82.076 38.5938 82.16 38.5938 82.264V85.648C38.5938 86.224 38.7458 86.664 39.0498 86.968C39.3538 87.264 39.7818 87.412 40.3338 87.412C40.8938 87.412 41.3258 87.264 41.6298 86.968C41.9418 86.664 42.0978 86.224 42.0978 85.648V82.264C42.0978 82.16 42.1298 82.076 42.1938 82.012C42.2658 81.94 42.3538 81.904 42.4578 81.904ZM44.3578 87.028C44.2938 86.924 44.2618 86.836 44.2618 86.764C44.2618 86.66 44.3138 86.58 44.4178 86.524C44.4658 86.476 44.5298 86.452 44.6098 86.452C44.7058 86.452 44.7938 86.492 44.8738 86.572C45.3458 87.196 45.9738 87.508 46.7578 87.508C47.1418 87.508 47.4738 87.42 47.7538 87.244C48.0418 87.06 48.1858 86.796 48.1858 86.452C48.1858 86.116 48.0538 85.864 47.7898 85.696C47.5258 85.528 47.1578 85.384 46.6858 85.264C46.0218 85.096 45.5018 84.88 45.1258 84.616C44.7498 84.344 44.5618 83.948 44.5618 83.428C44.5618 83.1 44.6538 82.808 44.8378 82.552C45.0218 82.288 45.2698 82.084 45.5818 81.94C45.9018 81.796 46.2618 81.724 46.6618 81.724C47.0058 81.724 47.3498 81.792 47.6938 81.928C48.0458 82.056 48.3458 82.264 48.5938 82.552C48.6658 82.608 48.7018 82.688 48.7018 82.792C48.7018 82.888 48.6618 82.972 48.5818 83.044C48.5258 83.092 48.4538 83.116 48.3658 83.116C48.2858 83.116 48.2138 83.084 48.1498 83.02C47.9578 82.804 47.7298 82.64 47.4658 82.528C47.2018 82.416 46.9178 82.36 46.6138 82.36C46.2378 82.36 45.9138 82.448 45.6418 82.624C45.3778 82.8 45.2458 83.064 45.2458 83.416C45.2618 83.736 45.4058 83.98 45.6778 84.148C45.9578 84.316 46.3658 84.468 46.9018 84.604C47.3178 84.708 47.6618 84.824 47.9338 84.952C48.2058 85.08 48.4258 85.26 48.5938 85.492C48.7698 85.724 48.8578 86.032 48.8578 86.416C48.8578 86.936 48.6498 87.352 48.2338 87.664C47.8178 87.968 47.3018 88.12 46.6858 88.12C45.7098 88.12 44.9338 87.756 44.3578 87.028ZM51.0268 87.64C51.0268 87.744 50.9908 87.832 50.9188 87.904C50.8548 87.968 50.7708 88 50.6668 88C50.5628 88 50.4748 87.968 50.4028 87.904C50.3388 87.832 50.3068 87.744 50.3068 87.64V82.12C50.3068 82.016 50.3388 81.932 50.4028 81.868C50.4748 81.796 50.5628 81.76 50.6668 81.76C50.7708 81.76 50.8548 81.796 50.9188 81.868C50.9908 81.932 51.0268 82.016 51.0268 82.12V87.64ZM50.6668 80.956C50.5068 80.956 50.3828 80.92 50.2948 80.848C50.2068 80.768 50.1628 80.656 50.1628 80.512V80.392C50.1628 80.248 50.2068 80.14 50.2948 80.068C50.3908 79.988 50.5188 79.948 50.6788 79.948C50.9988 79.948 51.1588 80.096 51.1588 80.392V80.512C51.1588 80.656 51.1148 80.768 51.0268 80.848C50.9468 80.92 50.8268 80.956 50.6668 80.956ZM55.5492 81.724C55.9252 81.724 56.2732 81.768 56.5932 81.856C56.9212 81.936 57.1812 82.048 57.3732 82.192C57.5732 82.336 57.6732 82.492 57.6732 82.66C57.6732 82.748 57.6412 82.828 57.5772 82.9C57.5212 82.972 57.4492 83.008 57.3612 83.008C57.2812 83.008 57.2132 82.992 57.1572 82.96C57.1092 82.928 57.0532 82.88 56.9892 82.816C56.8852 82.712 56.7852 82.636 56.6892 82.588C56.5692 82.532 56.4092 82.488 56.2092 82.456C56.0172 82.416 55.8092 82.396 55.5852 82.396C55.1452 82.396 54.7412 82.508 54.3732 82.732C54.0132 82.956 53.7292 83.26 53.5212 83.644C53.3132 84.028 53.2092 84.452 53.2092 84.916C53.2092 85.396 53.3092 85.828 53.5092 86.212C53.7092 86.596 53.9852 86.9 54.3372 87.124C54.6972 87.34 55.1052 87.448 55.5612 87.448C55.8492 87.448 56.0772 87.424 56.2452 87.376C56.4212 87.328 56.5932 87.26 56.7612 87.172C56.8172 87.14 56.9132 87.068 57.0492 86.956C57.1132 86.9 57.1692 86.86 57.2172 86.836C57.2652 86.804 57.3172 86.788 57.3732 86.788C57.4692 86.788 57.5452 86.82 57.6012 86.884C57.6572 86.94 57.6852 87.016 57.6852 87.112C57.6852 87.248 57.5892 87.396 57.3972 87.556C57.2052 87.708 56.9412 87.84 56.6052 87.952C56.2692 88.064 55.8972 88.12 55.4892 88.12C54.9052 88.12 54.3852 87.984 53.9292 87.712C53.4732 87.432 53.1172 87.048 52.8612 86.56C52.6132 86.072 52.4892 85.524 52.4892 84.916C52.4892 84.332 52.6172 83.8 52.8732 83.32C53.1292 82.832 53.4892 82.444 53.9532 82.156C54.4172 81.868 54.9492 81.724 55.5492 81.724ZM63.2785 87.628C63.2705 87.732 63.2305 87.82 63.1585 87.892C63.0865 87.964 62.9985 88 62.8945 88C62.7825 88 62.6905 87.968 62.6185 87.904C62.5545 87.832 62.5225 87.74 62.5225 87.628V79.972C62.5225 79.86 62.5585 79.772 62.6305 79.708C62.7025 79.636 62.7945 79.6 62.9065 79.6C63.0105 79.6 63.0985 79.636 63.1705 79.708C63.2425 79.78 63.2785 79.868 63.2785 79.972V87.628ZM68.2345 81.724C68.9785 81.724 69.5225 81.944 69.8665 82.384C70.2185 82.816 70.3945 83.392 70.3945 84.112V87.64C70.3945 87.744 70.3585 87.832 70.2865 87.904C70.2145 87.968 70.1305 88 70.0345 88C69.9305 88 69.8425 87.968 69.7705 87.904C69.7065 87.832 69.6745 87.744 69.6745 87.64V84.148C69.6745 83.628 69.5425 83.208 69.2785 82.888C69.0225 82.56 68.6225 82.396 68.0785 82.396C67.7345 82.396 67.4065 82.476 67.0945 82.636C66.7905 82.796 66.5425 83.012 66.3505 83.284C66.1585 83.548 66.0625 83.836 66.0625 84.148V87.64C66.0625 87.744 66.0265 87.832 65.9545 87.904C65.8905 87.968 65.8065 88 65.7025 88C65.5985 88 65.5105 87.968 65.4385 87.904C65.3745 87.832 65.3425 87.744 65.3425 87.64V82.264C65.3425 82.16 65.3745 82.076 65.4385 82.012C65.5105 81.94 65.5985 81.904 65.7025 81.904C65.8065 81.904 65.8905 81.94 65.9545 82.012C66.0265 82.076 66.0625 82.16 66.0625 82.264V82.924C66.2785 82.58 66.5865 82.296 66.9865 82.072C67.3945 81.84 67.8105 81.724 68.2345 81.724ZM71.932 87.028C71.868 86.924 71.836 86.836 71.836 86.764C71.836 86.66 71.888 86.58 71.992 86.524C72.04 86.476 72.104 86.452 72.184 86.452C72.28 86.452 72.368 86.492 72.448 86.572C72.92 87.196 73.548 87.508 74.332 87.508C74.716 87.508 75.048 87.42 75.328 87.244C75.616 87.06 75.76 86.796 75.76 86.452C75.76 86.116 75.628 85.864 75.364 85.696C75.1 85.528 74.732 85.384 74.26 85.264C73.596 85.096 73.076 84.88 72.7 84.616C72.324 84.344 72.136 83.948 72.136 83.428C72.136 83.1 72.228 82.808 72.412 82.552C72.596 82.288 72.844 82.084 73.156 81.94C73.476 81.796 73.836 81.724 74.236 81.724C74.58 81.724 74.924 81.792 75.268 81.928C75.62 82.056 75.92 82.264 76.168 82.552C76.24 82.608 76.276 82.688 76.276 82.792C76.276 82.888 76.236 82.972 76.156 83.044C76.1 83.092 76.028 83.116 75.94 83.116C75.86 83.116 75.788 83.084 75.724 83.02C75.532 82.804 75.304 82.64 75.04 82.528C74.776 82.416 74.492 82.36 74.188 82.36C73.812 82.36 73.488 82.448 73.216 82.624C72.952 82.8 72.82 83.064 72.82 83.416C72.836 83.736 72.98 83.98 73.252 84.148C73.532 84.316 73.94 84.468 74.476 84.604C74.892 84.708 75.236 84.824 75.508 84.952C75.78 85.08 76 85.26 76.168 85.492C76.344 85.724 76.432 86.032 76.432 86.416C76.432 86.936 76.224 87.352 75.808 87.664C75.392 87.968 74.876 88.12 74.26 88.12C73.284 88.12 72.508 87.756 71.932 87.028ZM79.105 82.564V86.584C79.105 86.888 79.161 87.096 79.273 87.208C79.385 87.312 79.533 87.364 79.717 87.364C79.765 87.364 79.825 87.356 79.897 87.34C79.969 87.316 80.025 87.304 80.065 87.304C80.137 87.304 80.197 87.336 80.245 87.4C80.301 87.456 80.329 87.524 80.329 87.604C80.329 87.716 80.265 87.812 80.137 87.892C80.009 87.964 79.857 88 79.681 88C79.465 88 79.273 87.98 79.105 87.94C78.937 87.9 78.773 87.78 78.613 87.58C78.461 87.38 78.385 87.06 78.385 86.62V82.564H77.509C77.413 82.564 77.329 82.532 77.257 82.468C77.193 82.404 77.161 82.324 77.161 82.228C77.161 82.132 77.193 82.052 77.257 81.988C77.329 81.924 77.413 81.892 77.509 81.892H78.385V80.56C78.385 80.456 78.417 80.372 78.481 80.308C78.553 80.236 78.641 80.2 78.745 80.2C78.849 80.2 78.933 80.236 78.997 80.308C79.069 80.372 79.105 80.456 79.105 80.56V81.892H80.305C80.393 81.892 80.469 81.928 80.533 82C80.605 82.072 80.641 82.152 80.641 82.24C80.641 82.336 80.609 82.416 80.545 82.48C80.481 82.536 80.401 82.564 80.305 82.564H79.105ZM84.8394 81.724C84.9994 81.724 85.1434 81.756 85.2714 81.82C85.3994 81.884 85.4634 81.98 85.4634 82.108C85.4634 82.22 85.4314 82.312 85.3674 82.384C85.3034 82.448 85.2274 82.48 85.1394 82.48C85.0994 82.48 85.0194 82.46 84.8994 82.42C84.7874 82.38 84.6794 82.36 84.5754 82.36C84.2794 82.36 83.9834 82.476 83.6874 82.708C83.3994 82.932 83.1594 83.224 82.9674 83.584C82.7834 83.944 82.6914 84.308 82.6914 84.676V87.64C82.6914 87.744 82.6554 87.832 82.5834 87.904C82.5194 87.968 82.4354 88 82.3314 88C82.2274 88 82.1394 87.968 82.0674 87.904C82.0034 87.832 81.9714 87.744 81.9714 87.64V82.264C81.9714 82.16 82.0034 82.076 82.0674 82.012C82.1394 81.94 82.2274 81.904 82.3314 81.904C82.4354 81.904 82.5194 81.94 82.5834 82.012C82.6554 82.076 82.6914 82.16 82.6914 82.264V83.32C82.8754 82.864 83.1514 82.488 83.5194 82.192C83.8954 81.888 84.3354 81.732 84.8394 81.724ZM91.1726 81.904C91.2766 81.904 91.3606 81.94 91.4246 82.012C91.4966 82.076 91.5326 82.16 91.5326 82.264V85.648C91.5326 86.432 91.3126 87.036 90.8726 87.46C90.4326 87.876 89.8246 88.084 89.0486 88.084C88.2806 88.084 87.6766 87.876 87.2366 87.46C86.8046 87.036 86.5886 86.432 86.5886 85.648V82.264C86.5886 82.16 86.6206 82.076 86.6846 82.012C86.7566 81.94 86.8446 81.904 86.9486 81.904C87.0526 81.904 87.1366 81.94 87.2006 82.012C87.2726 82.076 87.3086 82.16 87.3086 82.264V85.648C87.3086 86.224 87.4606 86.664 87.7646 86.968C88.0686 87.264 88.4966 87.412 89.0486 87.412C89.6086 87.412 90.0406 87.264 90.3446 86.968C90.6566 86.664 90.8126 86.224 90.8126 85.648V82.264C90.8126 82.16 90.8446 82.076 90.9086 82.012C90.9806 81.94 91.0686 81.904 91.1726 81.904ZM100.381 81.82C101.101 81.82 101.629 82.044 101.965 82.492C102.309 82.932 102.481 83.516 102.481 84.244V87.64C102.481 87.744 102.445 87.832 102.373 87.904C102.309 87.968 102.225 88 102.121 88C102.017 88 101.929 87.968 101.857 87.904C101.793 87.832 101.761 87.744 101.761 87.64V84.28C101.761 83.752 101.633 83.324 101.377 82.996C101.129 82.66 100.741 82.492 100.213 82.492C99.8767 82.492 99.5567 82.572 99.2527 82.732C98.9567 82.892 98.7167 83.112 98.5327 83.392C98.3487 83.664 98.2567 83.96 98.2567 84.28V87.64C98.2567 87.744 98.2207 87.832 98.1487 87.904C98.0847 87.968 98.0007 88 97.8967 88C97.7927 88 97.7047 87.968 97.6327 87.904C97.5687 87.832 97.5367 87.744 97.5367 87.64V84.244C97.5367 83.724 97.4167 83.304 97.1767 82.984C96.9367 82.656 96.5607 82.492 96.0487 82.492C95.7207 82.492 95.4087 82.572 95.1127 82.732C94.8247 82.892 94.5887 83.108 94.4047 83.38C94.2287 83.644 94.1407 83.932 94.1407 84.244V87.64C94.1407 87.744 94.1047 87.832 94.0327 87.904C93.9687 87.968 93.8847 88 93.7807 88C93.6767 88 93.5887 87.968 93.5167 87.904C93.4527 87.832 93.4207 87.744 93.4207 87.64V82.264C93.4207 82.16 93.4527 82.076 93.5167 82.012C93.5887 81.94 93.6767 81.904 93.7807 81.904C93.8847 81.904 93.9687 81.94 94.0327 82.012C94.1047 82.076 94.1407 82.16 94.1407 82.264V82.96C94.3567 82.632 94.6487 82.36 95.0167 82.144C95.3847 81.928 95.7727 81.82 96.1807 81.82C96.6447 81.82 97.0447 81.932 97.3807 82.156C97.7167 82.38 97.9567 82.708 98.1007 83.14C98.2687 82.788 98.5767 82.48 99.0247 82.216C99.4727 81.952 99.9247 81.82 100.381 81.82ZM109.55 84.58C109.55 84.676 109.514 84.76 109.442 84.832C109.37 84.896 109.286 84.928 109.19 84.928H104.654C104.654 85.408 104.75 85.84 104.942 86.224C105.142 86.6 105.422 86.9 105.782 87.124C106.15 87.34 106.582 87.448 107.078 87.448C107.462 87.448 107.806 87.368 108.11 87.208C108.414 87.048 108.658 86.844 108.842 86.596C108.93 86.524 109.014 86.488 109.094 86.488C109.174 86.488 109.246 86.52 109.31 86.584C109.374 86.648 109.406 86.72 109.406 86.8C109.406 86.888 109.366 86.972 109.286 87.052C109.03 87.364 108.706 87.62 108.314 87.82C107.93 88.02 107.522 88.12 107.09 88.12C106.474 88.12 105.93 87.988 105.458 87.724C104.986 87.46 104.618 87.092 104.354 86.62C104.09 86.14 103.958 85.588 103.958 84.964C103.958 84.308 104.086 83.736 104.342 83.248C104.606 82.752 104.954 82.376 105.386 82.12C105.818 81.856 106.278 81.724 106.766 81.724C107.246 81.724 107.694 81.836 108.11 82.06C108.534 82.284 108.878 82.612 109.142 83.044C109.406 83.476 109.542 83.988 109.55 84.58ZM106.766 82.42C106.302 82.42 105.87 82.58 105.47 82.9C105.078 83.22 104.826 83.68 104.714 84.28H108.806V84.184C108.766 83.824 108.646 83.512 108.446 83.248C108.246 82.976 107.994 82.772 107.69 82.636C107.394 82.492 107.086 82.42 106.766 82.42ZM113.926 81.724C114.67 81.724 115.214 81.944 115.558 82.384C115.91 82.816 116.086 83.392 116.086 84.112V87.64C116.086 87.744 116.05 87.832 115.978 87.904C115.906 87.968 115.822 88 115.726 88C115.622 88 115.534 87.968 115.462 87.904C115.398 87.832 115.366 87.744 115.366 87.64V84.148C115.366 83.628 115.234 83.208 114.97 82.888C114.714 82.56 114.314 82.396 113.77 82.396C113.426 82.396 113.098 82.476 112.786 82.636C112.482 82.796 112.234 83.012 112.042 83.284C111.85 83.548 111.754 83.836 111.754 84.148V87.64C111.754 87.744 111.718 87.832 111.646 87.904C111.582 87.968 111.498 88 111.394 88C111.29 88 111.202 87.968 111.13 87.904C111.066 87.832 111.034 87.744 111.034 87.64V82.264C111.034 82.16 111.066 82.076 111.13 82.012C111.202 81.94 111.29 81.904 111.394 81.904C111.498 81.904 111.582 81.94 111.646 82.012C111.718 82.076 111.754 82.16 111.754 82.264V82.924C111.97 82.58 112.278 82.296 112.678 82.072C113.086 81.84 113.502 81.724 113.926 81.724ZM119.171 82.564V86.584C119.171 86.888 119.227 87.096 119.339 87.208C119.451 87.312 119.599 87.364 119.783 87.364C119.831 87.364 119.891 87.356 119.963 87.34C120.035 87.316 120.091 87.304 120.131 87.304C120.203 87.304 120.263 87.336 120.311 87.4C120.367 87.456 120.395 87.524 120.395 87.604C120.395 87.716 120.331 87.812 120.203 87.892C120.075 87.964 119.923 88 119.747 88C119.531 88 119.339 87.98 119.171 87.94C119.003 87.9 118.839 87.78 118.679 87.58C118.527 87.38 118.451 87.06 118.451 86.62V82.564H117.575C117.479 82.564 117.395 82.532 117.323 82.468C117.259 82.404 117.227 82.324 117.227 82.228C117.227 82.132 117.259 82.052 117.323 81.988C117.395 81.924 117.479 81.892 117.575 81.892H118.451V80.56C118.451 80.456 118.483 80.372 118.547 80.308C118.619 80.236 118.707 80.2 118.811 80.2C118.915 80.2 118.999 80.236 119.063 80.308C119.135 80.372 119.171 80.456 119.171 80.56V81.892H120.371C120.459 81.892 120.535 81.928 120.599 82C120.671 82.072 120.707 82.152 120.707 82.24C120.707 82.336 120.675 82.416 120.611 82.48C120.547 82.536 120.467 82.564 120.371 82.564H119.171ZM121.924 87.028C121.86 86.924 121.828 86.836 121.828 86.764C121.828 86.66 121.88 86.58 121.984 86.524C122.032 86.476 122.096 86.452 122.176 86.452C122.272 86.452 122.36 86.492 122.44 86.572C122.912 87.196 123.54 87.508 124.324 87.508C124.708 87.508 125.04 87.42 125.32 87.244C125.608 87.06 125.752 86.796 125.752 86.452C125.752 86.116 125.62 85.864 125.356 85.696C125.092 85.528 124.724 85.384 124.252 85.264C123.588 85.096 123.068 84.88 122.692 84.616C122.316 84.344 122.128 83.948 122.128 83.428C122.128 83.1 122.22 82.808 122.404 82.552C122.588 82.288 122.836 82.084 123.148 81.94C123.468 81.796 123.828 81.724 124.228 81.724C124.572 81.724 124.916 81.792 125.26 81.928C125.612 82.056 125.912 82.264 126.16 82.552C126.232 82.608 126.268 82.688 126.268 82.792C126.268 82.888 126.228 82.972 126.148 83.044C126.092 83.092 126.02 83.116 125.932 83.116C125.852 83.116 125.78 83.084 125.716 83.02C125.524 82.804 125.296 82.64 125.032 82.528C124.768 82.416 124.484 82.36 124.18 82.36C123.804 82.36 123.48 82.448 123.208 82.624C122.944 82.8 122.812 83.064 122.812 83.416C122.828 83.736 122.972 83.98 123.244 84.148C123.524 84.316 123.932 84.468 124.468 84.604C124.884 84.708 125.228 84.824 125.5 84.952C125.772 85.08 125.992 85.26 126.16 85.492C126.336 85.724 126.424 86.032 126.424 86.416C126.424 86.936 126.216 87.352 125.8 87.664C125.384 87.968 124.868 88.12 124.252 88.12C123.276 88.12 122.5 87.756 121.924 87.028Z" fill="black"/>
</svg>
